# xmcd
#
# Track frame offsets:
#	150
#	19500
#	42375
#	65175
#	85800
#	101100
#	112050
#	123750
#	137550
#	149182
#	165375
#	178575
#	192750
#	207225
#	231450
#	256575
#	264075
#	287100
#
# Disc length: 4118 seconds
#
# Revision: 1
# Processed by: cddbd v1.5.1PL0 Copyright (c) Steve Scherf et al.
# Submitted via: audiograbber 1.83.01
#
DISCID=07101412
DTITLE=BLUES TRIO - Balkan Blues (Rarities)
DYEAR=1987
DGENRE=YU Blues
TTITLE0=Balkan Blues Theme
TTITLE1=Help Me
TTITLE2=St. James Infirmary
TTITLE3=Had My Fan-Midnight Special
TTITLE4=900 Miles From My Home
TTITLE5=Don`t Say You Love Me, Baby 
TTITLE6=The Nest
TTITLE7=Gotta Stop
TTITLE8=Baby, Let Me Lay On You
TTITLE9=Lady Bee Good
TTITLE10=Dust My Broom
TTITLE11=My Baby
TTITLE12=Rule The Road
TTITLE13=House Of The Rising Sun
TTITLE14=Big Mama Boogie
TTITLE15=Joe`s Run
TTITLE16=This Train
TTITLE17=Summertime
EXTD=Original Bootleg Tapes Vol 01\nRecorded Live at KST, May 19th 1987, Belgra
EXTD=de\nPersonel:\nPetar Miladinovic, Pera Joe - harp, vocals, kazoo\nDragan R
EXTD=uzic, Macan - vocals, guitar, kazoo\nZoran Katrinka, Kuki - tamburica, man
EXTD=dolin\n\nSORABIA DISK, 18000 Nis, Serbia
EXTT0=
EXTT1=
EXTT2=
EXTT3=
EXTT4=
EXTT5=
EXTT6=
EXTT7=
EXTT8=
EXTT9=
EXTT10=
EXTT11=
EXTT12=
EXTT13=
EXTT14=
EXTT15=
EXTT16=
EXTT17=
PLAYORDER=
